<svg width="50" height="49" viewBox="0 0 50 49" xmlns="http://www.w3.org/2000/svg"><g fill-rule="nonzero" fill="#EF6D71"><path d="M49.95 28.98v-8.007l-5.847-.976c-.457-1.758-1.156-3.44-2.086-5.02l3.45-4.832-5.662-5.66-4.83 3.45c-1.58-.93-3.264-1.63-5.02-2.086L28.978 0H20.97l-.975 5.85c-1.757.455-3.44 1.154-5.02 2.085l-4.83-3.45-5.663 5.66 3.45 4.83c-.93 1.58-1.63 3.264-2.085 5.022L0 20.973v8.006l5.85.974c.455 1.758 1.155 3.44 2.084 5.022l-3.45 4.83 5.662 5.66 4.83-3.45c1.58.93 3.264 1.63 5.02 2.087l.976 5.848h8.007l.974-5.847c1.757-.457 3.44-1.156 5.02-2.087l4.83 3.45 5.663-5.66-3.45-4.83c.93-1.58 1.63-3.264 2.086-5.022l5.848-.975zm-7.714-.164c-.442 1.997-1.23 3.896-2.344 5.644l-.378.593 3.234 4.527-3.168 3.17-4.528-3.236-.592.377c-1.75 1.115-3.648 1.904-5.644 2.346l-.686.152-.914 5.482h-4.48l-.914-5.482-.686-.152c-1.997-.442-3.896-1.23-5.645-2.345l-.59-.376-4.53 3.235-3.167-3.17 3.234-4.527-.378-.593c-1.114-1.748-1.902-3.647-2.345-5.644l-.15-.686-5.484-.914v-4.48l5.484-.915.15-.685c.444-1.997 1.232-3.896 2.345-5.644l.377-.592-3.234-4.527 3.168-3.168 4.53 3.235.59-.377c1.75-1.114 3.65-1.902 5.646-2.345l.686-.152.913-5.482h4.48l.915 5.483.686.152c1.997.443 3.895 1.23 5.644 2.345l.592.377 4.528-3.235 3.168 3.17-3.234 4.526.378.593c1.113 1.75 1.902 3.648 2.344 5.645l.152.686 5.482.915v4.48l-5.482.915-.152.686z"/><path d="M30.15 20.355l-1.47 1.47 3.15 3.15-3.15 3.15 1.47 1.472 4.622-4.62M21.27 21.826l-1.47-1.47-4.62 4.62 4.62 4.62 1.47-1.47-3.148-3.15M21.724 31.432l4.493-12.36 1.956.712-4.494 12.36z"/><path d="M24.976 11.447c-7.46 0-13.53 6.07-13.53 13.53 0 7.458 6.07 13.527 13.53 13.527 7.46 0 13.528-6.07 13.528-13.528 0-7.46-6.07-13.53-13.528-13.53zm0 24.976c-6.312 0-11.448-5.135-11.448-11.447 0-6.312 5.136-11.448 11.448-11.448s11.447 5.136 11.447 11.448-5.135 11.447-11.447 11.447z"/></g></svg>
