<svg width="50" height="43" viewBox="0 0 50 43" xmlns="http://www.w3.org/2000/svg"><g fill-rule="nonzero" fill="#EF6D71"><path d="M42.48 13.805C42.04 6.362 35.857.413 28.402.413c-4.525 0-8.906 2.203-11.62 5.796-.063-.034-.13-.055-.19-.086-.166-.08-.334-.155-.506-.222-.095-.037-.19-.07-.288-.105-.17-.06-.34-.11-.513-.157-.097-.026-.193-.052-.29-.075-.188-.042-.378-.074-.57-.102-.085-.013-.17-.03-.255-.04-.274-.03-.555-.048-.84-.048-4.134 0-7.5 3.338-7.5 7.442 0 .107.007.21.015.315C2.38 15.007 0 18.936 0 22.868 0 28.725 4.802 33.49 10.704 33.49H15c.46 0 .833-.37.833-.827 0-.457-.373-.826-.833-.826h-4.296c-4.983 0-9.037-4.023-9.037-8.97 0-3.434 2.254-7 5.36-8.478l.473-.225v-.52c0-.102.007-.207.013-.31l.007-.146-.01-.156c-.004-.072-.01-.144-.01-.217 0-3.19 2.617-5.788 5.833-5.788.258 0 .512.02.764.054l.194.03c.224.036.444.084.66.146.03.01.058.014.086.022.238.072.47.164.698.266.058.026.114.054.17.082.203.098.4.208.59.33 1.606 1.033 2.673 2.822 2.673 4.857 0 .458.373.827.833.827.46 0 .833-.37.833-.827 0-2.277-1.038-4.315-2.666-5.68 2.388-3.102 6.323-5.07 10.236-5.07 6.454 0 11.815 5.073 12.374 11.484-.852-.06-2.128-.09-3.403.104-.455.07-.767.49-.698.942.062.41.417.703.822.703.042 0 .085-.004.127-.01 1.853-.28 3.786-.018 3.903-.003 3.88.732 6.805 4.28 6.805 8.257 0 4.572-3.75 8.293-8.356 8.293h-3.31c-.46 0-.834.37-.834.826 0 .458.374.827.834.827h3.31C45.503 33.49 50 29.028 50 23.544c0-4.54-3.19-8.61-7.52-9.74z"/><path d="M26.423 22.157c-.076-.077-.17-.138-.27-.18-.205-.083-.435-.083-.638 0-.102.042-.194.103-.272.18l-6.665 6.614c-.326.324-.326.847 0 1.17.162.162.375.243.59.243.212 0 .425-.08.588-.243L25 24.737V41.76c0 .457.373.827.833.827.46 0 .834-.37.834-.827V24.737l5.244 5.203c.163.162.377.243.59.243.213 0 .427-.08.59-.243.325-.323.325-.846 0-1.17l-6.667-6.613z"/></g></svg>
