<svg width="50" height="45" viewBox="0 0 50 45" xmlns="http://www.w3.org/2000/svg"><path d="M8.036 3.53c0 .46-.374.835-.836.835h-.235c-.46 0-.835-.374-.835-.835 0-.462.374-.836.835-.836H7.2c.462 0 .836.374.836.836zm37.087 37.423c.713 1.266.264 2.876-1 3.59-.003 0-.004 0-.006.002-.397.223-.836.337-1.28.337-.24 0-.48-.033-.716-.1-.678-.19-1.242-.63-1.586-1.24l-2.19-3.888-1.844 1.04c-.26.146-.578.143-.835-.01-.257-.15-.413-.428-.41-.726l.09-9.512c.004-.3.166-.574.426-.72.26-.147.58-.143.837.01l8.184 4.844c.257.152.414.43.41.728-.003.3-.165.573-.425.72l-1.842 1.038 2.19 3.887zm-1.455.82l-2.6-4.614c-.11-.194-.138-.422-.078-.636.06-.213.2-.394.394-.503l1.31-.738-5.69-3.37-.065 6.616 1.31-.74c.13-.073.27-.107.41-.107.29 0 .574.154.728.426l2.6 4.615c.126.223.333.384.582.454.25.07.51.04.73-.087.002 0 .003 0 .004-.002.222-.125.38-.33.45-.58.07-.25.04-.51-.086-.73zm-7.748-13.76h3.058c.46 0 .835-.375.835-.837 0-.46-.374-.835-.835-.835H35.92c-.462 0-.836.375-.836.836 0 .462.374.836.836.836zM4.084 2.692H3.85c-.462 0-.836.375-.836.837 0 .46.374.835.835.835h.234c.462 0 .836-.374.836-.835 0-.462-.374-.836-.836-.836zm41.37 23.648h-3.06c-.46 0-.834.375-.834.836 0 .462.374.836.835.836h3.058c.462 0 .836-.374.836-.836 0-.46-.375-.835-.837-.835zM10.315 2.695h-.235c-.46 0-.835.374-.835.836 0 .46.374.835.836.835h.236c.46 0 .835-.374.835-.835 0-.462-.373-.836-.834-.836zm6.177 23.647c-.46 0-.835.375-.835.836 0 .462.374.836.835.836h3.058c.462 0 .836-.374.836-.836 0-.46-.374-.835-.835-.835h-3.057zm6.475 0c-.46 0-.835.375-.835.836 0 .462.374.836.835.836h3.058c.462 0 .836-.374.836-.836 0-.46-.374-.835-.836-.835h-3.058zM10.712 10.02v16.32h2.363c.46 0 .835.375.835.836 0 .462-.374.836-.835.836h-2.363v3.366c0 .46-.374.835-.835.835H4.705c-.46 0-.835-.374-.835-.835V10.02c0-.46.374-.836.835-.836h5.172c.46 0 .835.375.835.836zm-1.67.836h-3.5v19.686h3.5V10.856zm21.93 5.73c.462 0 .836-.374.836-.835v-3.058c0-.46-.374-.836-.835-.836-.46 0-.835.375-.835.836v3.06c0 .46.374.834.835.834zm0 12.955c.462 0 .836-.373.836-.834v-.694h.694c.46 0 .835-.374.835-.836 0-.46-.374-.835-.835-.835h-.694v-.693c0-.462-.374-.836-.835-.836-.46 0-.835.375-.835.837v.694h-.694c-.46 0-.835.375-.835.836 0 .462.373.836.834.836h.694v.694c0 .46.374.835.835.835zm-.834-7.312c0 .462.374.836.835.836.46 0 .835-.374.835-.836V19.17c0-.462-.374-.836-.835-.836-.46 0-.835.374-.835.836v3.058zM49.89 2.352v31.324c0 1.292-1.05 2.343-2.34 2.343-.462 0-.836-.376-.836-.837 0-.462.374-.836.835-.836.37 0 .67-.3.67-.67V7.05H31.81v2.223c0 .462-.374.836-.835.836-.46 0-.835-.375-.835-.837V7.05H1.67v26.626c0 .37.302.67.672.67h27.796v-2.222c0-.46.374-.835.835-.835.46 0 .835.373.835.834v2.223h.99c.46 0 .835.374.835.836 0 .46-.374.836-.836.836H2.342C1.052 36.02 0 34.967 0 33.675V2.352C0 1.06 1.05.01 2.342.01H47.55c1.29 0 2.34 1.05 2.34 2.342zm-1.67 0c0-.37-.3-.67-.67-.67H2.34c-.37 0-.67.3-.67.67V5.38h46.55V2.35z" fill-rule="nonzero" fill="#EF6D71"/></svg>
